<svg data-v-fde0c5aa="" xmlns="http://www.w3.org/2000/svg" viewBox="0 0 300 300" class="iconLeft"><!----><defs data-v-fde0c5aa=""><!----></defs><rect data-v-fde0c5aa="" fill="#3D1240" x="0" y="0" width="300px" height="300px" class="logo-background-square"></rect><defs data-v-fde0c5aa=""><!----></defs><g data-v-fde0c5aa="" id="c05b4083-2c70-4972-a24c-9602123e48f4" fill="#DDBA2E" transform="matrix(2.8813053620051376,0,0,2.8813053620051376,137.9767196536482,124.88942401742965)"><path d="M3.30 13.75L2.04 13.75L0.21 6.59L1.67 6.59L2.58 10.28L2.58 10.28Q2.67 10.70 2.72 10.98L2.72 10.98L2.72 10.98Q2.80 10.47 2.84 10.26L2.84 10.26L3.70 6.59L4.93 6.59L5.78 10.28L5.78 10.28Q5.85 10.50 5.92 10.99L5.92 10.99L5.92 10.99Q5.96 10.70 6.06 10.28L6.06 10.28L6.94 6.59L8.41 6.59L6.57 13.75L5.33 13.75L4.51 10.16L4.51 10.16Q4.42 9.83 4.31 9.18L4.31 9.18L4.31 9.18Q4.28 9.37 4.19 9.75L4.19 9.75L4.19 9.75Q4.10 10.14 4.09 10.16L4.09 10.16L3.30 13.75ZM12.99 5.60L12.99 5.60L12.99 5.60Q12.60 5.60 12.32 5.32L12.32 5.32L12.32 5.32Q12.04 5.04 12.04 4.63L12.04 4.63L12.04 4.63Q12.04 4.23 12.32 3.96L12.32 3.96L12.32 3.96Q12.60 3.68 12.99 3.68L12.99 3.68L12.99 3.68Q13.40 3.68 13.68 3.96L13.68 3.96L13.68 3.96Q13.96 4.23 13.96 4.63L13.96 4.63L13.96 4.63Q13.96 5.04 13.68 5.32L13.68 5.32L13.68 5.32Q13.40 5.60 12.99 5.60ZM13.80 6.59L13.80 12.33L15.78 12.33L15.78 13.75L10.22 13.75L10.22 12.33L12.19 12.33L12.19 8.01L10.22 8.01L10.22 6.59L13.80 6.59ZM22.06 6.43L22.06 6.43L22.06 6.43Q23.24 6.43 23.98 7.13L23.98 7.13L23.98 7.13Q24.71 7.84 24.71 9.38L24.71 9.38L24.71 13.75L23.10 13.75L23.10 9.72L23.10 9.72Q23.10 8.79 22.69 8.37L22.69 8.37L22.69 8.37Q22.29 7.95 21.62 7.95L21.62 7.95L21.62 7.95Q20.03 7.95 20.03 9.69L20.03 9.69L20.03 13.75L18.42 13.75L18.42 6.59L19.91 6.59L19.91 7.48L19.91 7.48Q20.12 7.06 20.73 6.74L20.73 6.74L20.73 6.74Q21.34 6.43 22.06 6.43ZM30.69 6.43L30.69 6.43L30.69 6.43Q31.86 6.43 32.60 7.13L32.60 7.13L32.60 7.13Q33.33 7.84 33.33 9.38L33.33 9.38L33.33 13.75L31.72 13.75L31.72 9.72L31.72 9.72Q31.72 8.79 31.32 8.37L31.32 8.37L31.32 8.37Q30.91 7.95 30.24 7.95L30.24 7.95L30.24 7.95Q28.66 7.95 28.66 9.69L28.66 9.69L28.66 13.75L27.05 13.75L27.05 6.59L28.53 6.59L28.53 7.48L28.53 7.48Q28.74 7.06 29.35 6.74L29.35 6.74L29.35 6.74Q29.96 6.43 30.69 6.43ZM40.67 6.43L40.67 6.43L40.67 6.43Q41.64 6.43 42.35 6.80L42.35 6.80L42.35 9.45L40.78 9.45L40.78 7.92L40.64 7.92L40.64 7.92Q39.54 7.92 38.93 8.44L38.93 8.44L38.93 8.44Q38.33 8.96 38.33 10.00L38.33 10.00L38.33 12.33L40.33 12.33L40.33 13.75L35.21 13.75L35.21 12.33L36.72 12.33L36.72 8.01L35.21 8.01L35.21 6.59L38.22 6.59L38.22 7.74L38.22 7.74Q38.51 7.13 39.19 6.78L39.19 6.78L39.19 6.78Q39.86 6.43 40.67 6.43Z"></path></g><defs data-v-fde0c5aa=""><!----></defs><g data-v-fde0c5aa="" id="8fe42797-8086-4243-a003-c79d70e46963" stroke="none" fill="#DDBA2E" transform="matrix(0.95709814362647,0,0,0.95709814362647,34.9359938279525,102.14557475591312)"><path clip-rule="evenodd" d="M88.872 27.263H11.129A5.838 5.838 0 0 0 5.291 33.1v33.796a5.838 5.838 0 0 0 5.838 5.84h77.743a5.837 5.837 0 0 0 5.837-5.84V33.101a5.837 5.837 0 0 0-5.837-5.838zM14.87 65.992a4.307 4.307 0 0 1 0-8.612 4.306 4.306 0 1 1 0 8.612zm0-23.373a4.306 4.306 0 1 1 0-8.611 4.306 4.306 0 0 1 0 8.611zm12.109 11.686a4.306 4.306 0 1 1 0-8.612 4.306 4.306 0 0 1 0 8.612zm12.107 11.687a4.307 4.307 0 1 1 .002-8.614 4.307 4.307 0 0 1-.002 8.614zm0-23.373a4.306 4.306 0 1 1 0-8.611 4.306 4.306 0 0 1 0 8.611zM51.959 65.98h-3.731V34.02h3.731v31.96zm7.408.012a4.307 4.307 0 1 1 .002-8.614 4.307 4.307 0 0 1-.002 8.614zm0-23.373a4.306 4.306 0 1 1 0-8.611 4.306 4.306 0 0 1 0 8.611zm12.681 23.373a4.307 4.307 0 1 1 .004-8.614 4.307 4.307 0 0 1-.004 8.614zm0-23.373a4.305 4.305 0 0 1 0-8.612 4.306 4.306 0 1 1 0 8.612zm12.681 23.373a4.307 4.307 0 1 1 .002-8.614 4.307 4.307 0 0 1-.002 8.614zm0-23.373a4.306 4.306 0 1 1 0-8.612 4.304 4.304 0 0 1 4.306 4.306 4.304 4.304 0 0 1-4.306 4.306z"></path></g><!----></svg>